<svg width="1500" height="500" viewBox="0 0 1500 500" fill="none" xmlns="http://www.w3.org/2000/svg">
<rect width="1500" height="500" fill="#C1C1C1"/>
<g clip-path="url(#clip0_910_91)">
<path d="M801.469 342.189C806.141 350.045 803.589 360.3 795.242 364.027C769.436 375.55 740.648 379.162 712.573 374.191C679.039 368.253 648.755 350.464 627.24 324.065C605.726 297.667 594.412 264.416 595.363 230.374C596.313 196.332 609.463 163.765 632.417 138.607C655.37 113.45 686.599 97.3773 720.412 93.3191C754.225 89.2608 788.37 97.487 816.625 116.498C844.88 135.51 865.363 164.04 874.342 196.891C881.859 224.394 880.893 253.392 871.778 280.143C868.83 288.796 858.851 292.275 850.6 288.341V288.341C842.349 284.407 838.984 274.546 841.624 265.795C847.501 246.314 847.834 225.459 842.411 205.618C835.525 180.424 819.816 158.543 798.146 143.962C776.476 129.382 750.289 123.073 724.357 126.185C698.424 129.297 674.474 141.624 656.87 160.918C639.266 180.212 629.18 205.19 628.451 231.298C627.723 257.406 636.399 282.907 652.9 303.153C669.4 323.399 692.626 337.042 718.344 341.596C738.598 345.183 759.335 342.944 778.197 335.311C786.671 331.882 796.798 334.332 801.469 342.189V342.189Z" fill="white"/>
<path d="M771.5 228L757 194L744 228L710 242L744 256.5L757 290.5L771.5 256.5L805.5 242L771.5 228Z" fill="white"/>
<path d="M709.351 193.788L700.545 173L692.649 193.788L672 202.347L692.649 211.212L700.545 232L709.351 211.212L730 202.347L709.351 193.788Z" fill="white"/>
<path d="M706.471 271.741L700.702 258L695.529 271.741L682 277.399L695.529 283.259L700.702 297L706.471 283.259L720 277.399L706.471 271.741Z" fill="white"/>
<line x1="824.925" y1="320.723" x2="900.469" y2="396.267" stroke="white" stroke-width="36" stroke-linecap="round"/>
<path d="M850.743 299.648C848.691 300.737 846.146 299.855 845.208 297.73L830.578 264.582C829.167 261.385 832.245 258.043 835.547 259.187L882.181 275.348C885.483 276.492 885.833 281.023 882.747 282.661L850.743 299.648Z" fill="white"/>
</g>
<defs>
<clipPath id="clip0_910_91">
<rect width="344" height="344" fill="white" transform="translate(578 78)"/>
</clipPath>
</defs>
</svg>
