<svg width="128" height="128" viewBox="0 0 128 128" fill="none" xmlns="http://www.w3.org/2000/svg">
<path d="M128 53.2793C128 58.3223 123.916 62.4153 118.883 62.4153C118.792 62.4153 118.719 62.4153 118.628 62.3973L109.714 96.4573H18.286L8.734 65.0103C3.884 64.8103 0 60.8083 0 55.8923C0 50.8493 4.084 46.7563 9.117 46.7563C14.149 46.7563 18.234 50.8493 18.234 55.8923C18.234 56.9343 18.052 57.9573 17.742 58.8893L39.823 71.8083L58.494 37.4373C55.923 35.8293 54.227 32.9603 54.227 29.7083C54.227 24.6653 58.311 20.5723 63.344 20.5723C68.377 20.5723 72.461 24.6653 72.461 29.7083C72.461 32.9603 70.765 35.8293 68.194 37.4373L86.865 71.8083L110.915 57.7383C110.186 56.4223 109.766 54.9063 109.766 53.2793C109.766 48.2173 113.85 44.1433 118.883 44.1433C123.916 44.1433 128 48.2183 128 53.2793ZM109.714 100.114H18.286V107.428H109.715V100.114H109.714Z" fill="#FFD700"/>
</svg>
