<svg width="2610" height="2216" viewBox="0 0 2610 2216" fill="none" xmlns="http://www.w3.org/2000/svg">
<g clip-path="url(#clip0_716_80)">
<path d="M1228.49 2142.62C195.09 2342.62 -164.91 1972.62 102.59 1482.92C133.09 1424.17 217.69 1429.67 241.04 1476.37C235.34 1513.87 225.24 1546.92 210.09 1574.27C81.7899 1954.52 411.59 2042.02 948.99 1996.82C1192.94 1976.32 1432.99 1920.37 1659.19 1826.72C2341.59 1544.27 2663.64 1040.67 2105.09 867.621C1812.89 798.021 1434.64 811.971 1103.34 944.621C1098.84 902.371 1096.24 859.221 1095.24 815.371C1336.74 735.721 1608.79 703.171 1887.59 710.221C2017.14 713.521 2145.39 739.771 2264.49 790.971C2964.09 1091.57 2508.59 1894.87 1228.49 2142.62Z" fill="#F09F21"/>
<g opacity="0.3">
<path d="M1100.01 958.781C1095.51 916.531 1092.91 873.381 1091.91 829.531C1092.86 829.231 1093.76 828.931 1094.71 828.631C1096.06 849.831 1097.81 870.881 1100.01 891.681C1431.31 759.031 1809.56 745.081 2101.76 814.681C2318.06 881.681 2402.26 998.231 2384.66 1132.38C2369.61 1026.93 2281.06 937.331 2101.76 881.781C1809.56 812.181 1431.31 826.131 1100.01 958.781Z" fill="#6B184E"/>
</g>
<g opacity="0.3">
<path d="M1228.49 2142.62C386.039 2305.67 -8.86095 2089.92 18.889 1739.32C44.839 2049.47 441.289 2227.87 1228.49 2075.52C2074.54 1911.77 2560.39 1505.37 2590.54 1161.77C2622.94 1517.77 2130.39 1968.07 1228.49 2142.62Z" fill="#6B184E"/>
</g>
<g opacity="0.55">
<path d="M1659.19 1826.72C1794.84 1770.57 1916.24 1705.72 2019.29 1636.42C1908.14 1716.12 1772.79 1790.87 1619.19 1854.47C1392.99 1948.12 1152.94 2004.07 908.992 2024.57C371.592 2069.77 41.7922 1982.27 170.092 1602.02C185.242 1574.67 195.342 1541.62 201.042 1504.12C185.892 1473.82 144.992 1460.87 109.742 1471.62C144.542 1425.12 219.292 1432.92 241.042 1476.37C235.342 1513.87 225.242 1546.92 210.092 1574.27C81.7922 1954.52 411.592 2042.02 948.992 1996.82C1192.94 1976.32 1432.99 1920.37 1659.19 1826.72Z" fill="#FEFEFD"/>
</g>
<g opacity="0.55">
<path d="M2177.49 1779.52C2643.64 1445.37 2692.24 1019.67 2224.49 818.721C2105.39 767.521 1977.14 741.271 1847.59 737.971C1584.24 731.321 1326.89 759.971 1095.64 830.321C1095.49 825.371 1095.34 820.371 1095.24 815.371C1336.74 735.721 1608.79 703.171 1887.59 710.221C2017.14 713.521 2145.39 739.771 2264.49 790.971C2745.29 997.571 2680.54 1441.52 2177.49 1779.52Z" fill="#FEFEFD"/>
</g>
<path d="M713.291 2215.57C626.361 2215.57 546.031 2209.57 472.541 2197.56C377.441 2182.01 294.661 2156.25 226.511 2120.99C159.731 2086.44 106.681 2042.67 68.841 1990.88C19.821 1923.79 -3.21901 1844.63 0.370989 1755.62C3.89099 1668.22 33.091 1573.7 87.161 1474.68C104.201 1442.02 136.931 1422.6 174.881 1422.6C175.161 1422.6 175.441 1422.6 175.731 1422.6C192.411 1422.73 208.611 1426.75 222.581 1434.25C237.751 1442.39 249.551 1454.25 256.701 1468.54C258.321 1471.77 258.891 1475.42 258.351 1479C252.301 1518.82 241.481 1553.23 226.191 1581.33C185.991 1701.32 191.481 1791.59 242.951 1857.28C289.021 1916.07 374.711 1955.8 497.651 1975.36C613.481 1993.79 760.641 1995.1 947.531 1979.38C1194.95 1958.59 1432.13 1901.79 1652.5 1810.55C2086.34 1630.98 2382.44 1355.68 2372.56 1141.07C2367.3 1026.87 2273.21 938.151 2100.47 884.511C1786.18 809.791 1415.9 838.321 1109.85 960.871C1104.76 962.911 1099.01 962.441 1094.32 959.621C1089.63 956.791 1086.53 951.931 1085.94 946.481C1081.54 905.151 1078.78 861.181 1077.75 815.771C1077.57 808.071 1082.45 801.161 1089.76 798.751C1208.81 759.491 1338.48 730.611 1475.18 712.931C1606.65 695.921 1745.55 689.131 1888.03 692.731C2023.62 696.181 2152.61 723.831 2271.4 774.901C2391.6 826.551 2481.62 893.961 2538.98 975.281C2566.72 1014.6 2586.56 1057.1 2597.96 1101.59C2609.19 1145.42 2612.31 1191.5 2607.24 1238.57C2587.79 1419.14 2450.38 1608.3 2220.33 1771.21C1969.56 1948.8 1627.73 2083.17 1231.81 2159.8C1039.89 2196.94 866.411 2215.57 713.291 2215.57ZM174.891 1457.6C150.181 1457.6 128.991 1470.05 118.121 1490.98C118.061 1491.09 118.011 1491.2 117.951 1491.31C15.661 1678.56 8.26099 1848.64 97.091 1970.23C167.921 2067.18 299.701 2133.84 478.181 2163.02C677.041 2195.53 928.361 2182.88 1225.16 2125.44L1228.49 2142.62L1225.16 2125.44C1616.23 2049.75 1953.36 1917.38 2200.11 1742.65C2421.85 1585.62 2554.09 1405.27 2572.45 1234.82C2591.87 1054.56 2480.05 902.641 2257.58 807.051C2142.89 757.751 2018.26 731.061 1887.14 727.721C1862.09 727.091 1837.18 726.771 1812.52 726.771C1556.83 726.771 1321.96 760.731 1113.08 827.971C1114.04 859.551 1115.86 890.341 1118.5 919.901C1193.66 891.141 1273.05 867.571 1354.81 849.751C1440.37 831.111 1528.83 818.681 1617.72 812.821C1788.25 801.581 1958.18 814.651 2109.14 850.601C2109.52 850.691 2109.89 850.791 2110.26 850.911C2348.36 924.681 2403.32 1048.55 2407.51 1139.47C2410.16 1196.94 2393.66 1258.58 2358.48 1322.68C2324.63 1384.35 2274.17 1447.09 2208.51 1509.15C2142.94 1571.12 2063.74 1630.96 1973.1 1687.02C1879.99 1744.61 1776.63 1797.05 1665.88 1842.89C1442.17 1935.51 1201.47 1993.17 950.451 2014.26C760.711 2030.22 610.801 2028.8 492.141 2009.92C428.031 1999.72 372.741 1984.08 327.831 1963.44C279.951 1941.44 242.121 1912.98 215.391 1878.86C186.231 1841.64 169.521 1796.85 165.751 1745.73C161.941 1694.12 171.281 1634.55 193.511 1568.67C193.851 1567.67 194.271 1566.71 194.781 1565.79C207.701 1542.46 217.111 1513.54 222.781 1479.76C213.621 1466.31 195.661 1457.76 175.451 1457.6C175.271 1457.6 175.081 1457.6 174.891 1457.6Z" fill="#6B184E"/>
<path d="M163.441 243.82C163.441 269.72 153.741 292.92 138.491 308.37C138.441 308.42 138.391 308.47 138.341 308.52C136.591 310.12 134.841 311.67 133.141 313.27L132.941 313.47C121.691 322.72 108.091 328.17 93.4414 328.17C54.7914 328.17 23.4414 290.42 23.4414 243.82C23.4414 210.52 39.4414 181.77 62.6414 168.02C62.7914 167.92 62.9414 167.77 63.0914 167.72C72.2414 162.42 82.5414 159.42 93.4414 159.42C132.091 159.42 163.441 197.22 163.441 243.82Z" fill="#F09F21"/>
<g opacity="0.3">
<path d="M163.441 243.82C163.441 269.72 153.741 292.92 138.491 308.37C138.441 308.42 138.391 308.47 138.341 308.52C136.591 310.12 134.841 311.67 133.141 313.27L132.941 313.47C121.691 322.72 108.091 328.17 93.4414 328.17C54.7914 328.17 23.4414 290.42 23.4414 243.82C23.4414 210.52 39.4414 181.77 62.6414 168.02C62.7914 167.92 62.9414 167.77 63.0914 167.72C72.2414 162.42 82.5414 159.42 93.4414 159.42C132.091 159.42 163.441 197.22 163.441 243.82Z" fill="#6B184E"/>
</g>
<path d="M93.4414 345.67C69.4514 345.67 47.0914 334.65 30.4814 314.65C14.6514 295.58 5.94141 270.43 5.94141 243.82C5.94141 205.55 23.9614 170.99 53.0114 153.39C53.6014 152.99 54.1914 152.62 54.8014 152.3C66.7114 145.51 80.0614 141.92 93.4414 141.92C141.691 141.92 180.941 187.63 180.941 243.82C180.941 273.34 170.011 301.35 150.941 320.66L150.781 320.82C150.601 321.01 150.331 321.26 150.141 321.44C149.521 322.01 148.901 322.57 148.281 323.13C147.281 324.03 146.291 324.93 145.321 325.84L145.311 325.85C144.911 326.25 144.491 326.63 144.051 326.99C129.191 339.21 111.691 345.67 93.4414 345.67ZM72.3014 182.61C72.0614 182.77 71.8114 182.93 71.5614 183.07C52.9614 194.09 40.9414 217.94 40.9414 243.82C40.9414 280.68 64.4914 310.67 93.4414 310.67C103.281 310.67 112.911 307.11 121.321 300.36C122.471 299.28 123.631 298.23 124.811 297.17C125.281 296.75 125.751 296.32 126.211 295.9C138.751 283.09 145.941 264.13 145.941 243.82C145.941 206.93 122.391 176.92 93.4414 176.92C86.0914 176.92 78.9814 178.83 72.3014 182.61ZM138.341 308.52H138.351H138.341Z" fill="#6B184E"/>
<path d="M2105.09 867.62C1812.89 798.021 1434.64 811.97 1103.34 944.62C1102.59 937.67 1101.89 930.72 1101.29 923.72C1098.04 888.17 1096.09 852.021 1095.24 815.37C1093.59 742.17 1096.29 666.92 1101.74 590.42C1103.64 563.82 1092.04 538.12 1070.84 521.92C917.142 404.62 789.943 279.12 715.093 137.62C532.293 115.37 284.992 176.87 138.493 308.37C138.442 308.42 138.392 308.47 138.342 308.52C136.692 310.22 134.942 311.82 133.142 313.27L132.942 313.47C59.0925 387.17 46.5425 497.02 70.5925 628.52C79.1425 675.271 92.1925 721.07 108.392 765.771C194.943 1004.92 269.393 1293.27 241.042 1476.37C235.342 1513.87 225.242 1546.92 210.092 1574.27C81.7925 1954.52 411.592 2042.02 948.992 1996.82C1192.94 1976.32 1432.99 1920.37 1659.19 1826.72C1794.49 1770.72 1915.59 1706.02 2018.49 1636.92C2019.54 1636.27 2020.59 1635.57 2021.64 1634.82L2039.84 1622.37C2438.59 1345.47 2545.14 1003.97 2105.09 867.62ZM163.442 640.12C120.092 427.62 245.092 395.12 297.592 620.07C410.092 1097.62 305.742 1228.32 163.442 640.12ZM413.893 1439.92C379.693 1447.17 338.293 1388.42 321.443 1308.72C304.643 1228.97 318.742 1158.52 352.943 1151.27C387.193 1144.07 428.543 1202.82 445.393 1282.52C462.243 1362.22 448.143 1432.72 413.893 1439.92ZM631.492 1384.22C572.592 1406.37 499.543 1265.32 462.943 1092.02C426.342 918.671 398.992 741.771 490.092 748.57C548.742 752.971 550.293 892.52 586.893 1065.82C623.492 1239.17 677.042 1367.12 631.492 1384.22ZM648.443 774.47C621.593 774.47 588.143 724.17 588.143 668.42C588.143 612.72 609.193 572.62 648.443 572.62C687.693 572.62 719.542 617.82 719.542 673.57C719.542 729.271 687.693 774.47 648.443 774.47ZM1053.29 1280.92C1052.54 1317.02 1047.94 1350.17 1037.94 1378.02C1035.39 1385.12 1032.49 1391.87 1029.19 1398.27C1013.74 1428.22 980.292 1444.97 947.042 1439.52C873.642 1427.42 813.943 1350.92 770.443 1256.67C755.943 1225.32 743.292 1192.02 732.492 1158.47C717.943 1113.12 706.843 1067.32 699.393 1025.27C698.593 1020.77 697.943 1016.27 697.393 1011.77C690.643 955.32 704.092 897.721 737.292 851.271C790.542 776.771 865.343 769.92 936.443 836.82C945.843 845.67 954.393 855.22 962.193 865.37C984.992 895.12 1000.74 930.07 1008.79 967.07C1009.99 972.62 1011.24 978.22 1012.44 983.92C1032.34 1075.57 1055.34 1188.07 1053.29 1280.92Z" fill="#FFCA28"/>
<g opacity="0.55">
<path d="M947.042 1439.52C873.642 1427.42 813.942 1350.92 770.442 1256.67C755.942 1225.32 743.292 1192.02 732.492 1158.47C717.942 1113.12 706.842 1067.32 699.392 1025.27C698.592 1020.77 697.942 1016.27 697.392 1011.77C690.642 955.32 704.092 897.72 737.292 851.27C750.992 832.12 766.092 817.47 782.192 807.32C752.492 813.32 724.792 833.02 701.242 865.92C668.042 912.37 654.592 969.97 661.342 1026.42C661.892 1030.92 662.542 1035.42 663.342 1039.92C670.792 1081.97 681.892 1127.77 696.442 1173.12C707.242 1206.67 719.892 1239.97 734.392 1271.32C777.892 1365.57 837.592 1442.07 910.992 1454.17C932.192 1457.67 953.492 1452.07 970.142 1439.77C962.592 1440.87 954.792 1440.77 947.042 1439.52ZM648.442 774.47C621.592 774.47 588.142 724.17 588.142 668.42C588.142 632.92 596.692 603.77 613.042 587.32C612.842 587.27 612.592 587.27 612.392 587.27C573.142 587.27 552.092 627.37 552.092 683.07C552.092 738.82 585.542 789.12 612.392 789.12C625.892 789.12 638.592 783.77 649.342 774.42C649.042 774.47 648.742 774.47 648.442 774.47ZM462.942 1092.02C433.242 951.37 409.642 808.37 450.492 763.07C363.692 761.12 390.792 935.62 426.892 1106.67C463.492 1279.97 536.542 1421.02 595.442 1398.87C601.892 1396.42 606.342 1391.82 609.092 1385.17C555.092 1371.02 495.042 1243.92 462.942 1092.02ZM321.442 1308.72C308.692 1248.12 313.742 1192.92 331.892 1166.72C326.792 1165.22 321.742 1164.92 316.892 1165.92C282.692 1173.17 268.592 1243.62 285.392 1323.37C302.242 1403.07 343.642 1461.82 377.842 1454.57C386.092 1452.82 393.142 1447.42 398.892 1439.12C368.342 1429.92 335.892 1377.02 321.442 1308.72ZM163.442 640.12C147.242 560.62 154.592 506.27 172.892 481.27C132.742 470.87 102.642 533.52 127.392 654.77C210.842 999.77 281.242 1097.47 302.542 1022.87C269.242 990.92 219.292 870.82 163.442 640.12Z" fill="#FEFEFD"/>
</g>
<g opacity="0.55">
<path d="M1158.89 1193.72C1092.69 1106.07 1067.29 959.271 1067.29 959.271C1066.54 952.321 1065.84 945.371 1065.24 938.371C1061.99 902.821 1060.04 866.671 1059.19 830.021C1057.54 756.821 1060.24 681.571 1065.69 605.071C1067.59 578.471 1055.99 552.771 1034.79 536.571C881.091 419.271 753.891 293.771 679.041 152.271C566.741 138.621 430.041 156.521 307.391 202.921C438.741 145.771 591.641 122.571 715.091 137.621C789.941 279.121 917.141 404.621 1070.84 521.921C1092.04 538.121 1103.64 563.821 1101.74 590.421C1096.29 666.921 1093.59 742.171 1095.24 815.371C1096.09 852.021 1098.04 888.171 1101.29 923.721C1101.79 929.321 1102.69 938.371 1103.44 945.371C1102.29 945.771 1101.19 946.221 1100.04 946.671C1115.54 1043.62 1133.44 1132.07 1158.89 1193.72Z" fill="#FEFEFD"/>
</g>
<path d="M1170.09 1222.62C1149.27 1179.48 1132.18 1134.29 1118.37 1088C1104.55 1041.7 1093.98 994.311 1085.93 946.471V946.451C1084.32 936.901 1090.76 927.861 1100.31 926.251C1109.86 924.641 1118.9 931.081 1120.51 940.631C1120.62 941.311 1120.7 942.081 1120.74 942.751C1122.85 989.981 1127.46 1037.18 1135.41 1084C1143.36 1130.82 1154.67 1177.26 1170.09 1222.62Z" fill="#6B184E"/>
<path d="M1012.44 983.921C936.541 1019.32 828.341 1076.12 749.291 1143.62H749.241C743.491 1148.52 737.891 1153.47 732.491 1158.47C717.941 1113.12 706.841 1067.32 699.391 1025.27C698.591 1020.77 697.941 1016.27 697.391 1011.77C708.941 1003.62 720.641 995.621 732.491 987.871V987.821C803.941 940.721 880.891 899.971 962.191 865.371C978.141 886.221 990.641 909.571 999.491 934.421C1003.29 945.071 1006.39 955.971 1008.79 967.071C1009.99 972.621 1011.24 978.221 1012.44 983.921Z" fill="#F09F21"/>
<path d="M715.09 137.621C532.29 115.371 284.99 176.871 138.49 308.371C153.74 292.921 163.44 269.721 163.44 243.821C163.44 197.221 132.09 159.421 93.4398 159.421C82.5398 159.421 72.2398 162.421 63.0898 167.721C191.94 69.1209 469.29 -0.0791054 673.19 21.4709C684.79 22.6709 696.09 26.4709 705.59 33.1709C739.69 57.3709 742.49 106.671 715.09 137.621Z" fill="#F09F21"/>
<g opacity="0.55">
<path d="M724.99 123.321C724.74 102.321 715.44 81.7709 696.94 68.6209C687.44 61.9209 676.14 58.1209 664.54 56.9209C488.94 38.3709 258.89 87.1209 116.14 163.971C109.04 161.021 101.39 159.421 93.4398 159.421C82.5398 159.421 72.2398 162.421 63.0898 167.721C191.94 69.1209 469.29 -0.0791054 673.19 21.4709C684.79 22.6709 696.09 26.4709 705.59 33.1709C734.84 53.9209 741.04 93.0709 724.99 123.321Z" fill="#FEFEFD"/>
</g>
<path d="M2105.09 867.62C1812.89 798.02 1434.64 811.97 1103.34 944.62C1098.84 902.37 1096.24 859.22 1095.24 815.37C1093.59 742.17 1096.29 666.92 1101.74 590.42C1103.64 563.82 1092.04 538.12 1070.84 521.92C917.142 404.62 789.943 279.12 715.093 137.62C532.293 115.37 284.993 176.87 138.493 308.37C138.443 308.42 138.392 308.47 138.342 308.52C136.692 310.22 134.942 311.82 133.142 313.27L132.942 313.47C59.0925 387.17 46.5425 497.02 70.5925 628.52C79.1425 675.27 92.1925 721.071 108.392 765.771C194.943 1004.92 269.392 1293.27 241.042 1476.37C235.342 1513.87 225.242 1546.92 210.092 1574.27C81.7925 1954.52 411.592 2042.02 948.992 1996.82C1192.94 1976.32 1432.99 1920.37 1659.19 1826.72C2341.59 1544.27 2663.64 1040.67 2105.09 867.62ZM163.442 640.12C120.092 427.62 245.092 395.12 297.592 620.07C410.092 1097.62 305.743 1228.32 163.442 640.12ZM413.893 1439.92C379.693 1447.17 338.293 1388.42 321.443 1308.72C304.643 1228.97 318.743 1158.52 352.943 1151.27C387.193 1144.07 428.543 1202.82 445.393 1282.52C462.243 1362.22 448.143 1432.72 413.893 1439.92ZM631.492 1384.22C572.592 1406.37 499.543 1265.32 462.943 1092.02C426.343 918.671 398.993 741.77 490.092 748.57C548.743 752.97 550.293 892.52 586.893 1065.82C623.493 1239.17 677.042 1367.12 631.492 1384.22ZM648.443 774.47C621.593 774.47 588.143 724.17 588.143 668.42C588.143 612.72 609.193 572.62 648.443 572.62C687.693 572.62 719.542 617.82 719.542 673.57C719.542 729.27 687.693 774.47 648.443 774.47ZM1053.29 1280.92C1052.54 1317.02 1047.94 1350.17 1037.94 1378.02C1035.39 1385.12 1032.49 1391.87 1029.19 1398.27C1013.74 1428.22 980.292 1444.97 947.042 1439.52C873.642 1427.42 813.943 1350.92 770.443 1256.67C755.943 1225.32 743.292 1192.02 732.492 1158.47C717.942 1113.12 706.843 1067.32 699.393 1025.27C698.593 1020.77 697.943 1016.27 697.393 1011.77C690.643 955.321 704.092 897.721 737.292 851.271C790.542 776.771 865.343 769.92 936.443 836.82C945.843 845.67 954.393 855.22 962.193 865.37C984.993 895.12 1000.74 930.07 1008.79 967.07C1009.99 972.62 1011.24 978.22 1012.44 983.92C1032.34 1075.57 1055.34 1188.07 1053.29 1280.92Z" stroke="#6B184E" stroke-width="35" stroke-miterlimit="10" stroke-linecap="round" stroke-linejoin="round"/>
<path d="M138.492 325.871C133.872 325.871 129.262 324.051 125.822 320.451C119.292 313.601 119.382 302.811 126.032 296.081C138.682 283.26 145.932 264.221 145.932 243.821C145.932 206.931 122.382 176.921 93.4321 176.921C85.9221 176.921 78.6621 178.921 71.8521 182.861C63.8621 187.491 53.6621 185.111 48.5321 177.441C43.4021 169.771 45.1221 159.431 52.4521 153.821C117.232 104.251 217.882 61.1705 335.862 32.5305C454.872 3.64052 575.322 -6.46948 675.022 4.06052C690.082 5.62052 704.152 10.7405 715.672 18.8605C735.362 32.8405 747.732 53.9605 750.542 78.3805C753.492 104.021 745.342 129.841 728.192 149.211C724.382 153.521 718.692 155.681 712.972 154.981C547.822 134.881 301.472 185.581 150.172 321.381C146.842 324.391 142.662 325.871 138.492 325.871ZM124.472 148.541C157.452 163.151 180.942 200.351 180.942 243.821C180.942 246.871 180.822 249.901 180.592 252.901C244.392 208.511 321.932 172.871 408.432 148.491C509.902 119.891 615.542 109.541 707.212 119.111C714.172 108.271 717.262 95.2805 715.782 82.3705C714.122 67.9605 706.912 55.5505 695.472 47.4305C688.882 42.7805 680.542 39.8105 671.402 38.8705C498.532 20.6105 265.022 69.3905 124.472 148.541Z" fill="#6B184E"/>
<path d="M732.49 1175.97C731.01 1175.97 729.52 1175.78 728.05 1175.4C722.27 1173.88 717.66 1169.51 715.83 1163.82C701.71 1119.82 690.07 1072.97 682.16 1028.33C681.35 1023.79 680.65 1019.06 680.02 1013.9C679.24 1007.51 682.03 1001.21 687.28 997.49C767.66 940.64 857.84 890.77 955.33 849.28C962.68 846.15 971.22 848.4 976.07 854.74C999.98 885.94 1017.21 923.51 1025.88 963.36C1026.31 965.33 1026.73 967.29 1027.16 969.26C1027.96 972.92 1028.76 976.6 1029.55 980.33C1031.23 988.29 1027.2 996.36 1019.82 999.8C944.28 1035.03 837.99 1090.9 760.64 1156.95C760.37 1157.18 760.09 1157.4 759.81 1157.62C754.35 1162.29 749.16 1166.9 744.37 1171.33C741.1 1174.34 736.84 1175.97 732.49 1175.97ZM716.23 1019.93C716.36 1020.7 716.49 1021.45 716.62 1022.2C722.74 1056.74 731.18 1092.66 741.3 1127.44C816.99 1063.73 917.09 1009.83 992.39 974.01C992.15 972.92 991.92 971.84 991.68 970.76C985.1 940.5 972.91 911.81 956.2 887C869.42 924.87 788.8 969.53 716.23 1019.93Z" fill="#6B184E"/>
<path d="M697.389 1029.27C694.979 1029.27 692.559 1028.77 690.289 1027.76C684.649 1025.26 680.749 1019.97 680.019 1013.85C672.589 951.68 687.869 890.33 723.059 841.1C751.809 800.87 787.579 777.59 826.489 773.78C867.079 769.8 909.239 787.2 948.439 824.08C958.269 833.33 967.559 843.64 976.069 854.71C979.369 859 980.489 864.58 979.119 869.81C977.749 875.05 974.029 879.35 969.049 881.47C873.849 921.99 785.849 970.64 707.499 1026.05C704.489 1028.18 700.949 1029.27 697.389 1029.27ZM837.819 808.22C835.159 808.22 832.519 808.35 829.889 808.61C801.329 811.41 774.229 829.68 751.519 861.45C727.089 895.63 713.889 936.75 713.199 979.62C780.719 934.28 854.639 893.73 933.579 858.72C930.599 855.55 927.539 852.49 924.429 849.57C895.569 822.39 865.799 808.22 837.819 808.22Z" fill="#6B184E"/>
<path d="M1053.29 1280.92C1052.54 1317.02 1047.94 1350.17 1037.94 1378.02L770.442 1256.67C755.942 1225.32 743.292 1192.02 732.492 1158.47C737.892 1153.47 743.492 1148.52 749.242 1143.62H749.292C828.342 1076.12 936.542 1019.32 1012.44 983.92C1032.34 1075.57 1055.34 1188.07 1053.29 1280.92Z" fill="#FCC955"/>
<path d="M959.719 1458.05C954.559 1458.05 949.379 1457.63 944.209 1456.78C872.909 1445.03 807.339 1378.36 754.549 1263.99C740.419 1233.45 727.389 1199.74 715.829 1163.82C713.739 1157.34 715.599 1150.24 720.599 1145.62C725.969 1140.65 731.789 1135.49 737.889 1130.29C738.159 1130.06 738.429 1129.84 738.719 1129.63C818.989 1061.32 927.789 1004.08 1005.05 968.05C1009.87 965.8 1015.45 965.87 1020.22 968.23C1024.99 970.59 1028.42 975 1029.55 980.2C1050.58 1077.06 1072.85 1188.19 1070.79 1281.28C1069.96 1321.46 1064.45 1355.99 1054.41 1383.93C1051.58 1391.82 1048.32 1399.34 1044.74 1406.29C1035.45 1424.29 1020.89 1438.65 1002.63 1447.81C989.119 1454.59 974.509 1458.05 959.719 1458.05ZM752.659 1163.82C762.889 1194.38 774.189 1223.1 786.319 1249.32C808.929 1298.3 833.869 1337.93 860.459 1367.11C889.199 1398.65 919.289 1417.2 949.879 1422.25C975.519 1426.45 1001.74 1413.29 1013.63 1390.24C1016.51 1384.66 1019.15 1378.55 1021.46 1372.1C1030.21 1347.73 1035.03 1316.93 1035.78 1280.55C1035.78 1280.54 1035.78 1280.53 1035.78 1280.53C1037.6 1197.95 1019.07 1098.72 999.969 1009.18C926.449 1044.56 831.429 1096.47 760.639 1156.92C760.369 1157.15 760.089 1157.37 759.809 1157.59C757.379 1159.68 754.989 1161.76 752.659 1163.82Z" fill="#6B184E"/>
<path d="M319.253 1049.26C306.243 1049.26 293.083 1040.7 280.013 1023.71C267.723 1007.74 254.493 983.34 240.673 951.17C210.753 881.51 178.163 775.37 146.433 644.23C146.383 644.03 146.333 643.82 146.293 643.61C135.773 592.05 134.133 546.67 141.543 512.4C151.943 464.29 176.623 452.06 190.403 449.04C204.393 445.98 232.343 446.94 262.253 487.72C283.773 517.06 301.883 561.45 314.633 616.08C342.233 733.25 358.623 836.7 362.003 915.19C363.563 951.46 362.223 980.69 358.003 1002.07C356.013 1012.13 349.973 1042.75 326.263 1048.41C323.943 1048.98 321.603 1049.26 319.253 1049.26ZM180.523 636.31C209.643 756.64 239.583 855.99 267.093 923.64C294.823 991.81 312.293 1008.99 318.053 1013.1C322.873 1004.99 330.663 975.53 326.363 903.82C321.873 828.99 306.033 732.25 280.553 624.08C265.783 560.79 247.093 526.26 234.023 508.43C221.123 490.84 207.263 481.18 197.873 483.24C188.663 485.25 180.183 499.26 175.743 519.8C171.303 540.38 168.523 577.3 180.523 636.31Z" fill="#6B184E"/>
<path d="M408.01 1458.04C387.12 1458.04 365.72 1443.79 346.85 1417.01C328.05 1390.33 312.94 1353.16 304.31 1312.34C295.7 1271.49 294.49 1231.38 300.9 1199.37C308.31 1162.36 325.5 1139.19 349.31 1134.15C373.17 1129.14 398.27 1143.37 420 1174.23C438.78 1200.9 453.88 1238.08 462.51 1278.9C475.84 1341.97 471.25 1400.89 450.53 1432.68C441.93 1445.88 430.51 1454.3 417.51 1457.04C414.36 1457.71 411.19 1458.04 408.01 1458.04ZM358.66 1168.18C357.92 1168.18 357.22 1168.25 356.54 1168.39C347.83 1170.24 339.45 1185.09 335.22 1206.23C329.73 1233.69 330.91 1268.8 338.56 1305.1C346.23 1341.36 359.33 1373.95 375.46 1396.83C387.87 1414.45 401.53 1424.62 410.26 1422.79C410.27 1422.79 410.28 1422.79 410.29 1422.78C414.07 1421.99 417.74 1418.88 421.21 1413.56C433.99 1393.96 441.12 1346.95 428.27 1286.13C420.6 1249.84 407.5 1217.26 391.38 1194.37C379.93 1178.12 367.41 1168.18 358.66 1168.18Z" fill="#6B184E"/>
<path d="M619.023 1404C609.103 1404 598.943 1401.24 588.943 1395.76C553.653 1376.42 524.573 1325.38 506.383 1285.97C481.813 1232.74 460.873 1166.92 445.823 1095.64C409.703 924.541 394.343 800.651 436.803 752.101C450.263 736.711 469.133 729.471 491.403 731.121C527.843 733.851 543.773 770.001 552.583 796.951C563.663 830.851 571.383 877.581 580.323 931.681C586.823 971.051 594.193 1015.68 604.023 1062.21C614.543 1112.06 626.533 1158.31 637.103 1199.11C650.113 1249.32 661.353 1292.69 665.113 1324.98C667.303 1343.78 666.943 1357.88 663.983 1369.37C658.943 1388.91 646.883 1397.15 637.643 1400.61C631.613 1402.87 625.363 1404 619.023 1404ZM485.173 765.881C472.773 765.881 466.703 771.071 463.143 775.141C452.923 786.821 441.963 816.431 447.763 891.141C452.573 953.121 467.553 1029.12 480.073 1088.4C494.383 1156.18 515.023 1221.13 538.173 1271.3C560.763 1320.25 584.773 1353.55 605.773 1365.07C615.593 1370.45 621.643 1369.23 625.333 1367.84H625.343C631.053 1365.7 632.923 1351.19 630.343 1329.03C626.863 1299.13 615.903 1256.85 603.213 1207.89C592.543 1166.72 580.453 1120.07 569.763 1069.44C559.773 1022.15 552.343 977.121 545.773 937.381C530.783 846.601 517.833 768.201 488.773 766.021C487.523 765.921 486.323 765.881 485.173 765.881Z" fill="#6B184E"/>
<path d="M648.441 791.971C628.821 791.971 608.691 777.161 593.211 751.351C578.861 727.431 570.641 697.201 570.641 668.421C570.641 637.121 576.841 610.221 588.561 590.641C602.271 567.731 623.541 555.121 648.441 555.121C673.281 555.121 696.211 568.261 713.021 592.111C728.511 614.101 737.041 643.031 737.041 673.571C737.041 704.091 728.511 733.001 713.011 754.991C696.211 778.831 673.281 791.971 648.441 791.971ZM648.441 590.121C616.881 590.121 605.641 630.571 605.641 668.421C605.641 691.041 612.051 714.711 623.231 733.351C633.551 750.561 644.171 756.971 648.441 756.971C677.491 756.971 702.041 718.781 702.041 673.571C702.041 628.331 677.491 590.121 648.441 590.121Z" fill="#6B184E"/>
<path d="M210.09 307.621C218.28 311.091 226.37 314.721 234.45 318.331L246.52 323.821C250.56 325.611 254.49 327.591 258.57 329.301C266.71 332.741 274.78 336.301 282.87 339.811C286.92 341.561 290.93 343.361 294.95 345.141C298.97 346.921 302.97 348.741 307.07 350.361L331.44 360.481C335.5 362.161 339.54 363.881 343.58 365.601L349.64 368.161L355.78 370.561C363.97 373.731 372.12 376.991 380.26 380.251C388.41 383.491 396.51 386.811 404.76 389.811C470.24 414.891 536.57 437.261 603.63 457.351C670.7 477.421 738.49 495.231 806.86 511.421C823.99 515.271 841.05 519.591 858.23 523.351C866.82 525.261 875.42 527.121 884 529.081L896.88 532.031L903.33 533.501L909.8 534.861L935.66 540.431L961.54 546.161C978.84 549.751 996.14 553.471 1013.43 557.631C995.69 557.361 977.96 556.661 960.23 555.831C942.52 554.801 924.85 553.291 907.16 551.861C889.49 550.241 871.88 548.071 854.24 546.011C845.4 545.081 836.64 543.661 827.86 542.381C819.08 541.081 810.28 539.811 801.51 538.421C731.36 527.101 661.81 511.351 593.59 490.871C525.38 470.431 458.5 445.261 394.02 415.041C385.87 411.481 377.98 407.321 370 403.371C362.04 399.391 354.08 395.421 346.17 391.351L340.23 388.321L334.37 385.121C330.47 382.981 326.56 380.851 322.69 378.671L299.42 365.661C295.53 363.521 291.75 361.171 287.95 358.861C284.15 356.551 280.35 354.251 276.57 351.901C269.02 347.221 261.45 342.581 253.95 337.831C246.49 333.031 239.2 327.911 231.87 322.921C224.56 317.861 217.27 312.821 210.09 307.621Z" fill="#6B184E"/>
<path d="M1053.44 1298.47C1051.61 1298.47 1049.75 1298.18 1047.92 1297.57L1047.77 1297.52C1047.2 1297.33 1046.63 1297.11 1046.08 1296.86L742.083 1159.56C733.273 1155.58 729.363 1145.22 733.333 1136.41C737.313 1127.6 747.673 1123.69 756.483 1127.66L1059.92 1264.71C1068.46 1268.12 1072.97 1277.64 1070.03 1286.48C1067.61 1293.83 1060.78 1298.47 1053.44 1298.47Z" fill="#6B184E"/>
<g opacity="0.3">
<path d="M742.59 1143.62L770.42 1244.4L1031.96 1371.99L1053.44 1280.97L1053.29 1280.92L749.29 1143.62H742.59Z" fill="#6B184E"/>
</g>
<path d="M1037.94 1395.54C1035.52 1395.54 1033.07 1395.04 1030.72 1393.97L763.182 1272.62C754.382 1268.63 750.482 1258.26 754.472 1249.45C758.462 1240.65 768.842 1236.75 777.642 1240.74L1045.18 1362.09C1053.98 1366.08 1057.88 1376.45 1053.89 1385.26C1050.96 1391.72 1044.6 1395.54 1037.94 1395.54Z" fill="#6B184E"/>
<g opacity="0.3">
<path d="M1012.44 983.92C936.541 1019.32 828.341 1076.12 749.291 1143.62H749.241C743.491 1148.52 737.891 1153.47 732.491 1158.47C717.941 1113.12 706.841 1067.32 699.391 1025.27C698.591 1020.77 697.941 1016.27 697.391 1011.77C708.941 1003.62 720.641 995.62 732.491 987.87C741.191 1045.47 800.091 1036.37 800.091 1036.37C885.141 975.12 999.491 934.42 999.491 934.42C1003.29 945.07 1006.39 955.97 1008.79 967.07C1009.99 972.62 1011.24 978.22 1012.44 983.92Z" fill="#6B184E"/>
</g>
<g opacity="0.3">
<path d="M863.419 1180.97C863.419 1180.97 936.75 1102.62 1032.74 1070.42L1012.43 983.92L756.77 1137.32L863.419 1180.97Z" fill="#6B184E"/>
</g>
<g opacity="0.3">
<path d="M2036.63 1633.08L2018.43 1645.53L2015.08 1647.83C2015.13 1647.78 2015.23 1647.73 2015.28 1647.63C2793.55 999.371 1820.88 775.691 1112.23 1041.08L1092.03 938.331L1098.08 934.431C1098.68 941.431 1099.38 948.381 1100.13 955.331C1431.43 822.681 1809.68 808.731 2101.88 878.331C2534.52 1015.81 2443.55 1328.4 2036.63 1633.08Z" fill="#6B184E"/>
</g>
<path d="M1467.44 1780.01C1573.31 1764.78 1652.76 1708.08 1644.89 1653.38C1637.02 1598.68 1544.81 1566.68 1438.94 1581.91C1333.07 1597.14 1253.63 1653.83 1261.5 1708.54C1269.37 1763.24 1361.57 1795.24 1467.44 1780.01Z" fill="#EC1C24"/>
<g opacity="0.55">
<path d="M1528.39 1765.83C1579.14 1740.58 1610.04 1704.68 1604.99 1669.58C1597.09 1614.88 1504.89 1582.88 1398.99 1598.08C1377.54 1601.18 1357.24 1605.93 1338.44 1612.08C1366.74 1598.03 1401.19 1587.28 1438.99 1581.83C1544.89 1566.63 1637.09 1598.63 1644.99 1653.33C1651.24 1696.88 1602.14 1741.73 1528.39 1765.83Z" fill="#FEFEFD"/>
</g>
<path d="M1415.33 1798.76C1381.58 1798.76 1349.86 1793.98 1322.87 1784.62C1278.41 1769.19 1251.36 1742.91 1246.71 1710.63C1237.52 1646.76 1321.04 1583.67 1436.86 1567.01C1490.39 1559.3 1542.52 1562.92 1583.64 1577.19C1628.1 1592.62 1655.15 1618.9 1659.8 1651.18C1664.45 1683.47 1645.91 1716.31 1607.6 1743.65C1572.17 1768.94 1523.18 1787.1 1469.65 1794.81C1451.25 1797.45 1433.01 1798.76 1415.33 1798.76ZM1491.35 1593.03C1475.07 1593.03 1458.22 1594.25 1441.15 1596.7C1392.27 1603.73 1347.95 1620.03 1316.35 1642.58C1288.05 1662.78 1273.49 1686.02 1276.42 1706.35C1279.35 1726.68 1299.86 1744.88 1332.72 1756.28C1369.4 1769.01 1416.51 1772.14 1465.39 1765.11C1514.27 1758.08 1558.59 1741.78 1590.19 1719.23C1618.49 1699.03 1633.05 1675.79 1630.12 1655.46C1627.19 1635.13 1606.68 1616.93 1573.82 1605.53C1549.95 1597.25 1521.66 1593.03 1491.35 1593.03Z" fill="#6B184E"/>
<g opacity="0.3">
<path d="M1360.69 1709.9C1367.02 1709.9 1372.15 1707.1 1372.15 1703.65C1372.15 1700.2 1367.02 1697.4 1360.69 1697.4C1354.36 1697.4 1349.23 1700.2 1349.23 1703.65C1349.23 1707.1 1354.36 1709.9 1360.69 1709.9Z" fill="#6B184E"/>
</g>
<g opacity="0.3">
<path d="M1558.81 1702.22C1565.14 1702.22 1570.27 1699.42 1570.27 1695.97C1570.27 1692.52 1565.14 1689.72 1558.81 1689.72C1552.48 1689.72 1547.35 1692.52 1547.35 1695.97C1547.35 1699.42 1552.48 1702.22 1558.81 1702.22Z" fill="#6B184E"/>
</g>
<g opacity="0.3">
<path d="M1443.81 1681.9C1452.21 1681.9 1459.02 1678.19 1459.02 1673.61C1459.02 1669.03 1452.21 1665.32 1443.81 1665.32C1435.41 1665.32 1428.6 1669.03 1428.6 1673.61C1428.6 1678.19 1435.41 1681.9 1443.81 1681.9Z" fill="#6B184E"/>
</g>
<g opacity="0.3">
<path d="M1547.35 1653.78C1555.75 1653.78 1562.56 1650.07 1562.56 1645.49C1562.56 1640.91 1555.75 1637.2 1547.35 1637.2C1538.95 1637.2 1532.14 1640.91 1532.14 1645.49C1532.14 1650.07 1538.95 1653.78 1547.35 1653.78Z" fill="#6B184E"/>
</g>
<g opacity="0.3">
<path d="M1419.72 1723.83C1433.83 1723.83 1445.27 1717.59 1445.27 1709.9C1445.27 1702.21 1433.83 1695.97 1419.72 1695.97C1405.61 1695.97 1394.17 1702.21 1394.17 1709.9C1394.17 1717.59 1405.61 1723.83 1419.72 1723.83Z" fill="#6B184E"/>
</g>
<path d="M2010.62 1130.85C2116.49 1115.62 2195.94 1058.93 2188.07 1004.22C2180.2 949.521 2087.99 917.522 1982.12 932.753C1876.25 947.985 1796.81 1004.68 1804.68 1059.38C1812.55 1114.08 1904.75 1146.08 2010.62 1130.85Z" fill="#EC1C24"/>
<g opacity="0.55">
<path d="M2071.54 1116.66C2122.29 1091.41 2153.19 1055.51 2148.14 1020.41C2140.24 965.709 2048.04 933.709 1942.14 948.909C1920.69 952.009 1900.39 956.759 1881.59 962.909C1909.89 948.859 1944.34 938.109 1982.14 932.659C2088.04 917.459 2180.24 949.459 2188.14 1004.16C2194.39 1047.71 2145.29 1092.56 2071.54 1116.66Z" fill="#FEFEFD"/>
</g>
<path d="M1958.49 1149.59C1924.74 1149.59 1893.01 1144.81 1866.03 1135.45C1821.57 1120.02 1794.52 1093.74 1789.87 1061.46C1785.22 1029.17 1803.76 996.329 1842.07 968.989C1877.5 943.709 1926.49 925.539 1980.02 917.829C2095.84 901.159 2193.76 938.139 2202.96 1002.01C2212.15 1065.88 2128.63 1128.96 2012.81 1145.63C1994.41 1148.28 1976.17 1149.59 1958.49 1149.59ZM2034.5 943.859C2018.23 943.859 2001.37 945.079 1984.3 947.529C1935.42 954.559 1891.1 970.859 1859.5 993.409C1831.2 1013.61 1816.64 1036.85 1819.57 1057.18C1822.5 1077.51 1843.01 1095.71 1875.87 1107.11C1912.55 1119.84 1959.67 1122.97 2008.54 1115.94C2057.42 1108.91 2101.74 1092.61 2133.34 1070.06C2161.64 1049.86 2176.2 1026.62 2173.27 1006.29C2170.34 985.959 2149.83 967.759 2116.97 956.359C2093.11 948.079 2064.82 943.859 2034.5 943.859Z" fill="#6B184E"/>
<g opacity="0.3">
<path d="M1903.84 1060.72C1910.17 1060.72 1915.3 1057.92 1915.3 1054.47C1915.3 1051.02 1910.17 1048.22 1903.84 1048.22C1897.51 1048.22 1892.38 1051.02 1892.38 1054.47C1892.38 1057.92 1897.51 1060.72 1903.84 1060.72Z" fill="#6B184E"/>
</g>
<g opacity="0.3">
<path d="M2101.96 1053.05C2108.29 1053.05 2113.42 1050.25 2113.42 1046.8C2113.42 1043.35 2108.29 1040.55 2101.96 1040.55C2095.63 1040.55 2090.5 1043.35 2090.5 1046.8C2090.5 1050.25 2095.63 1053.05 2101.96 1053.05Z" fill="#6B184E"/>
</g>
<g opacity="0.3">
<path d="M1986.96 1032.73C1995.36 1032.73 2002.17 1029.02 2002.17 1024.44C2002.17 1019.86 1995.36 1016.15 1986.96 1016.15C1978.56 1016.15 1971.75 1019.86 1971.75 1024.44C1971.75 1029.02 1978.56 1032.73 1986.96 1032.73Z" fill="#6B184E"/>
</g>
<g opacity="0.3">
<path d="M2090.5 1004.6C2098.9 1004.6 2105.71 1000.89 2105.71 996.31C2105.71 991.731 2098.9 988.02 2090.5 988.02C2082.1 988.02 2075.29 991.731 2075.29 996.31C2075.29 1000.89 2082.1 1004.6 2090.5 1004.6Z" fill="#6B184E"/>
</g>
<g opacity="0.3">
<path d="M1962.87 1074.65C1976.98 1074.65 1988.42 1068.41 1988.42 1060.72C1988.42 1053.03 1976.98 1046.79 1962.87 1046.79C1948.76 1046.79 1937.32 1053.03 1937.32 1060.72C1937.32 1068.41 1948.76 1074.65 1962.87 1074.65Z" fill="#6B184E"/>
</g>
<path d="M844.258 305.711C850.136 259.209 781.945 212.29 691.949 200.915C601.953 189.539 524.231 218.015 518.354 264.517C512.476 311.019 580.667 357.938 670.663 369.314C760.66 380.689 838.381 352.213 844.258 305.711Z" fill="#EC1C24"/>
<g opacity="0.55">
<path d="M723.622 371.47C770.802 362.25 804.152 339.85 807.922 310.02C813.782 263.52 745.592 216.6 655.582 205.18C637.342 202.89 619.682 202.2 602.922 203C629.222 197.88 659.812 196.85 691.942 200.9C781.952 212.31 850.132 259.23 844.282 305.74C839.592 342.75 789.352 368.37 723.622 371.47Z" fill="#FEFEFD"/>
</g>
<path d="M709.932 386.829C696.492 386.829 682.712 385.959 668.802 384.199C622.942 378.399 580.782 363.579 550.072 342.449C516.452 319.319 499.912 290.969 503.492 262.639C507.072 234.309 530.152 210.969 568.472 196.929C603.472 184.109 647.992 180.239 693.852 186.039C739.712 191.839 781.872 206.669 812.582 227.789C846.202 250.919 862.742 279.269 859.162 307.599C855.582 335.929 832.502 359.269 794.192 373.309C769.802 382.239 740.792 386.829 709.932 386.829ZM652.542 213.389C625.292 213.389 599.902 217.359 578.782 225.099C551.922 234.939 535.322 249.989 533.252 266.399C531.182 282.809 543.502 301.519 567.072 317.729C593.902 336.189 631.362 349.229 672.552 354.429C713.742 359.639 753.272 356.339 783.852 345.129C810.712 335.289 827.312 320.239 829.382 303.829C831.452 287.419 819.132 268.709 795.562 252.499C768.732 234.039 731.272 220.999 690.082 215.799C677.342 214.189 664.752 213.389 652.542 213.389Z" fill="#6B184E"/>
<g opacity="0.3">
<path d="M609.882 285.45C609.102 288.27 604.282 289.4 599.102 287.98C593.922 286.56 590.362 283.11 591.132 280.29C591.912 277.47 596.732 276.34 601.912 277.76C607.092 279.18 610.662 282.63 609.882 285.45Z" fill="#6B184E"/>
</g>
<g opacity="0.3">
<path d="M773.601 323.78C772.821 326.6 768.001 327.73 762.821 326.31C757.641 324.88 754.081 321.44 754.851 318.62C755.631 315.8 760.451 314.67 765.631 316.09C770.811 317.51 774.381 320.95 773.601 323.78Z" fill="#6B184E"/>
</g>
<g opacity="0.3">
<path d="M687.697 280.482C688.728 276.739 683.996 272.171 677.127 270.28C670.258 268.388 663.854 269.889 662.823 273.633C661.793 277.376 666.525 281.944 673.394 283.835C680.263 285.727 686.666 284.226 687.697 280.482Z" fill="#6B184E"/>
</g>
<g opacity="0.3">
<path d="M778.651 280.759C777.621 284.499 771.221 286.009 764.351 284.119C757.481 282.229 752.751 277.659 753.781 273.919C754.811 270.179 761.211 268.669 768.081 270.559C774.951 272.449 779.691 277.019 778.651 280.759Z" fill="#6B184E"/>
</g>
<g opacity="0.3">
<path d="M668.261 307.019C666.531 313.309 655.771 315.829 644.231 312.659C632.691 309.479 624.741 301.809 626.471 295.519C628.201 289.229 638.961 286.709 650.501 289.879C662.041 293.059 669.991 300.729 668.261 307.019Z" fill="#6B184E"/>
</g>
<path d="M695.468 1911.02C801.338 1895.79 880.783 1839.09 872.913 1784.39C865.043 1729.69 772.838 1697.69 666.968 1712.92C561.098 1728.15 481.653 1784.84 489.523 1839.55C497.393 1894.25 589.598 1926.25 695.468 1911.02Z" fill="#EC1C24"/>
<g opacity="0.55">
<path d="M756.411 1896.88C807.161 1871.63 838.061 1835.73 833.011 1800.63C825.111 1745.93 732.911 1713.93 627.011 1729.13C605.561 1732.23 585.261 1736.98 566.461 1743.13C594.761 1729.08 629.211 1718.33 667.011 1712.88C772.911 1697.68 865.111 1729.68 873.011 1784.38C879.261 1827.93 830.161 1872.78 756.411 1896.88Z" fill="#FEFEFD"/>
</g>
<path d="M643.362 1929.81C609.612 1929.81 577.882 1925.03 550.902 1915.67C506.442 1900.24 479.392 1873.96 474.742 1841.67C470.092 1809.38 488.632 1776.54 526.942 1749.2C562.372 1723.91 611.362 1705.75 664.892 1698.04C780.712 1681.37 878.632 1718.35 887.822 1782.21C897.012 1846.08 813.492 1909.16 697.672 1925.83C679.272 1928.5 661.042 1929.81 643.362 1929.81ZM719.372 1724.08C703.102 1724.08 686.242 1725.3 669.172 1727.75C620.292 1734.78 575.972 1751.08 544.372 1773.63C516.072 1793.83 501.512 1817.07 504.442 1837.4C507.372 1857.73 527.882 1875.93 560.742 1887.33C597.422 1900.06 644.532 1903.19 693.412 1896.16C742.292 1889.13 786.612 1872.83 818.212 1850.28C846.512 1830.08 861.072 1806.84 858.142 1786.51C855.212 1766.18 834.702 1747.98 801.842 1736.58C777.972 1728.3 749.692 1724.08 719.372 1724.08Z" fill="#6B184E"/>
<g opacity="0.3">
<path d="M588.71 1840.94C595.039 1840.94 600.17 1838.14 600.17 1834.69C600.17 1831.24 595.039 1828.44 588.71 1828.44C582.381 1828.44 577.25 1831.24 577.25 1834.69C577.25 1838.14 582.381 1840.94 588.71 1840.94Z" fill="#6B184E"/>
</g>
<g opacity="0.3">
<path d="M786.831 1833.27C793.16 1833.27 798.291 1830.47 798.291 1827.02C798.291 1823.57 793.16 1820.77 786.831 1820.77C780.502 1820.77 775.371 1823.57 775.371 1827.02C775.371 1830.47 780.502 1833.27 786.831 1833.27Z" fill="#6B184E"/>
</g>
<g opacity="0.3">
<path d="M671.831 1812.95C680.231 1812.95 687.041 1809.24 687.041 1804.66C687.041 1800.08 680.231 1796.37 671.831 1796.37C663.431 1796.37 656.621 1800.08 656.621 1804.66C656.621 1809.24 663.431 1812.95 671.831 1812.95Z" fill="#6B184E"/>
</g>
<g opacity="0.3">
<path d="M775.37 1784.82C783.77 1784.82 790.58 1781.11 790.58 1776.53C790.58 1771.95 783.77 1768.24 775.37 1768.24C766.97 1768.24 760.16 1771.95 760.16 1776.53C760.16 1781.11 766.97 1784.82 775.37 1784.82Z" fill="#6B184E"/>
</g>
<g opacity="0.3">
<path d="M647.741 1854.87C661.852 1854.87 673.291 1848.63 673.291 1840.94C673.291 1833.25 661.852 1827.01 647.741 1827.01C633.631 1827.01 622.191 1833.25 622.191 1840.94C622.191 1848.63 633.631 1854.87 647.741 1854.87Z" fill="#6B184E"/>
</g>
<path d="M1488.19 1422.21C1446.57 1390.15 1420.47 1346.49 1412.42 1289.35L1355.59 1321.76C1362.73 1376.38 1387.99 1420.67 1431.36 1454.62L1488.19 1422.21Z" fill="#3CCE54"/>
<g opacity="0.55">
<path d="M1431.35 1454.63L1488.2 1422.2C1480.77 1416.49 1473.83 1410.37 1467.41 1403.89L1432.17 1424.02C1396.19 1395.88 1372.68 1360.64 1361.69 1318.29L1355.56 1321.75C1362.71 1376.38 1387.97 1420.68 1431.35 1454.63Z" fill="#FEFEFD"/>
</g>
<path d="M1431.36 1468.53C1428.32 1468.53 1425.29 1467.53 1422.79 1465.57C1376.65 1429.45 1349.4 1381.67 1341.8 1323.56C1341.07 1317.96 1343.79 1312.48 1348.7 1309.68L1405.53 1277.27C1409.53 1274.99 1414.41 1274.84 1418.55 1276.87C1422.69 1278.9 1425.55 1282.85 1426.19 1287.41C1433.57 1339.85 1456.63 1380.34 1496.68 1411.2C1500.37 1414.04 1502.39 1418.53 1502.07 1423.17C1501.75 1427.81 1499.13 1431.98 1495.09 1434.29L1438.26 1466.7C1436.1 1467.92 1433.72 1468.53 1431.36 1468.53ZM1370.76 1329.11C1378.4 1373.12 1398.76 1408.83 1432.75 1437.82L1464.02 1419.99C1432.63 1390.87 1411.92 1354.4 1402.24 1311.16L1370.76 1329.11Z" fill="#6B184E"/>
<path d="M1161.54 1802.61C1119.92 1770.55 1093.82 1726.89 1085.77 1669.75L1028.94 1702.16C1036.08 1756.78 1061.34 1801.07 1104.71 1835.02L1161.54 1802.61Z" fill="#3CCE54"/>
<g opacity="0.55">
<path d="M1104.7 1835.03L1161.55 1802.6C1154.12 1796.89 1147.18 1790.77 1140.76 1784.29L1105.52 1804.42C1069.54 1776.28 1046.03 1741.04 1035.04 1698.69L1028.91 1702.16C1036.06 1756.77 1061.33 1801.08 1104.7 1835.03Z" fill="#FEFEFD"/>
</g>
<path d="M1104.71 1848.92C1101.67 1848.92 1098.64 1847.92 1096.14 1845.96C1050 1809.84 1022.75 1762.06 1015.15 1703.95C1014.42 1698.35 1017.14 1692.87 1022.05 1690.07L1078.88 1657.66C1082.88 1655.38 1087.76 1655.23 1091.9 1657.26C1096.04 1659.29 1098.9 1663.24 1099.54 1667.8C1106.92 1720.24 1129.98 1760.73 1170.03 1791.59C1173.72 1794.43 1175.74 1798.92 1175.42 1803.56C1175.1 1808.2 1172.48 1812.37 1168.44 1814.68L1111.61 1847.09C1109.45 1848.32 1107.08 1848.92 1104.71 1848.92ZM1044.12 1709.5C1051.76 1753.51 1072.12 1789.22 1106.11 1818.21L1137.38 1800.38C1105.99 1771.26 1085.28 1734.79 1075.6 1691.55L1044.12 1709.5Z" fill="#6B184E"/>
<path d="M2131.27 1253.39C2080.77 1267.89 2030.14 1263.03 1979.36 1235.63L1971.76 1300.61C2019.98 1327.25 2070.61 1333.17 2123.67 1318.37L2131.27 1253.39Z" fill="#3CCE54"/>
<g opacity="0.55">
<path d="M2123.68 1318.38L2131.28 1253.37C2122.27 1255.97 2113.24 1257.92 2104.21 1259.26L2099.53 1299.57C2055.54 1311.86 2013.22 1309.89 1972.6 1293.64L1971.76 1300.63C2019.97 1327.26 2070.62 1333.18 2123.68 1318.38Z" fill="#FEFEFD"/>
</g>
<path d="M2067.85 1340.17C2032.46 1340.17 1998.06 1331.02 1965.03 1312.78C1960.09 1310.05 1957.29 1304.6 1957.94 1298.99L1965.54 1234.01C1966.08 1229.43 1968.84 1225.42 1972.93 1223.29C1977.02 1221.16 1981.89 1221.2 1985.95 1223.39C2032.56 1248.54 2078.83 1253.98 2127.42 1240.03C2131.89 1238.74 2136.71 1239.78 2140.26 1242.79C2143.81 1245.8 2145.61 1250.38 2145.07 1255.01L2137.47 1319.99C2136.81 1325.6 2132.83 1330.25 2127.39 1331.77C2107.3 1337.37 2087.43 1340.17 2067.85 1340.17ZM1986.68 1292.74C2026.65 1312.69 2067.48 1317.46 2110.97 1307.27L2115.15 1271.52C2073.09 1279.53 2031.44 1274.58 1990.88 1256.74L1986.68 1292.74Z" fill="#6B184E"/>
<path d="M593.891 412.92C543.391 427.42 492.761 422.56 441.971 395.16L434.371 460.14C482.591 486.78 533.221 492.7 586.291 477.9L593.891 412.92Z" fill="#3CCE54"/>
<g opacity="0.55">
<path d="M586.299 477.901L593.899 412.891C584.889 415.491 575.859 417.441 566.829 418.781L562.149 459.091C518.159 471.381 475.839 469.411 435.219 453.161L434.379 460.151C482.589 486.781 533.239 492.711 586.299 477.901Z" fill="#FEFEFD"/>
</g>
<path d="M530.48 499.691C495.09 499.691 460.69 490.541 427.66 472.301C422.72 469.571 419.92 464.121 420.57 458.511L428.17 393.531C428.71 388.951 431.47 384.941 435.56 382.811C439.65 380.681 444.52 380.721 448.58 382.911C495.19 408.061 541.47 413.501 590.05 399.551C594.52 398.271 599.34 399.301 602.89 402.311C606.44 405.321 608.24 409.911 607.7 414.531L600.1 479.511C599.439 485.121 595.46 489.771 590.02 491.291C569.93 496.891 550.049 499.691 530.48 499.691ZM449.3 452.271C489.27 472.211 530.1 476.991 573.59 466.801L577.77 431.051C535.71 439.061 494.06 434.111 453.5 416.271L449.3 452.271Z" fill="#6B184E"/>
<path d="M1117.71 1216.82C1067.21 1231.32 1016.58 1226.46 965.791 1199.06L958.191 1264.04C1006.41 1290.68 1057.04 1296.6 1110.11 1281.8L1117.71 1216.82Z" fill="#3CCE54"/>
<g opacity="0.55">
<path d="M1110.11 1281.81L1117.71 1216.8C1108.7 1219.4 1099.67 1221.35 1090.64 1222.69L1085.96 1263C1041.97 1275.29 999.651 1273.32 959.031 1257.07L958.191 1264.06C1006.4 1290.69 1057.06 1296.61 1110.11 1281.81Z" fill="#FEFEFD"/>
</g>
<path d="M1054.29 1303.6C1018.9 1303.6 984.502 1294.45 951.472 1276.21C946.532 1273.48 943.732 1268.03 944.382 1262.42L951.982 1197.44C952.522 1192.86 955.282 1188.85 959.372 1186.72C963.462 1184.59 968.332 1184.63 972.392 1186.82C1019 1211.97 1065.28 1217.41 1113.86 1203.45C1118.33 1202.16 1123.15 1203.2 1126.7 1206.21C1130.25 1209.22 1132.05 1213.8 1131.51 1218.43L1123.91 1283.41C1123.25 1289.02 1119.27 1293.67 1113.83 1295.19C1093.74 1300.8 1073.86 1303.6 1054.29 1303.6ZM973.112 1256.17C1013.08 1276.11 1053.91 1280.89 1097.4 1270.7L1101.58 1234.95C1059.52 1242.96 1017.87 1238.01 977.322 1220.17L973.112 1256.17Z" fill="#6B184E"/>
<path d="M1856.41 1518.92L1858.19 1568.99C1858.46 1576.49 1852.45 1582.72 1844.94 1582.72H1788.81C1779.07 1582.72 1772.65 1572.57 1776.84 1563.77L1792.86 1530.06C1801.85 1511.14 1788.54 1489.3 1767.62 1488.41C1727.55 1486.71 1703.69 1481.32 1703.69 1454.12C1703.69 1414.42 1777.64 1379.53 1854.94 1379.53C1932.24 1379.53 1983.69 1414.42 1983.69 1454.12C1983.69 1484.45 1939.9 1487.36 1884.87 1488.73C1868.63 1489.14 1855.83 1502.69 1856.41 1518.92Z" fill="#EAD0A8"/>
<g opacity="0.55">
<path d="M1983.68 1454.13C1983.68 1469.63 1972.23 1477.98 1953.68 1482.58C1955.88 1478.98 1957.03 1474.78 1957.03 1469.88C1957.03 1430.18 1905.58 1395.28 1828.28 1395.28C1791.13 1395.28 1754.78 1403.33 1727.03 1416.13C1754.93 1394.58 1804.18 1379.53 1854.93 1379.53C1932.23 1379.53 1983.68 1414.43 1983.68 1454.13Z" fill="#FEFEFD"/>
</g>
<g opacity="0.3">
<path d="M1858.18 1568.98C1858.48 1576.48 1852.43 1582.73 1844.93 1582.73H1788.83C1779.08 1582.73 1772.63 1572.58 1776.83 1563.78L1792.88 1530.08C1801.83 1511.13 1788.53 1489.33 1767.63 1488.43C1727.53 1486.73 1703.68 1481.33 1703.68 1454.13C1703.68 1430.83 1729.13 1409.23 1765.78 1395.28C1749.68 1407.03 1739.93 1420.78 1739.93 1435.18C1739.93 1462.38 1763.78 1467.78 1803.88 1469.48C1824.78 1470.33 1838.08 1492.18 1829.13 1511.13L1813.08 1544.83C1808.88 1553.63 1815.33 1563.78 1825.08 1563.78H1857.98L1858.18 1568.98Z" fill="#6B184E"/>
</g>
<path d="M1844.94 1597.72H1788.81C1779.06 1597.72 1770.13 1592.8 1764.92 1584.56C1759.71 1576.32 1759.1 1566.14 1763.29 1557.34L1779.31 1523.63C1781.38 1519.28 1781.14 1514.43 1778.66 1510.31C1776.14 1506.13 1771.88 1503.61 1766.98 1503.41C1748.15 1502.61 1728.76 1500.98 1714.45 1494.51C1697.6 1486.89 1688.69 1472.93 1688.69 1454.13C1688.69 1429.05 1708.25 1405.72 1743.77 1388.46C1775.04 1373.26 1815.56 1364.54 1854.94 1364.54C1894.07 1364.54 1929.99 1373.27 1956.09 1389.13C1983.56 1405.82 1998.69 1428.9 1998.69 1454.13C1998.69 1468.8 1991.76 1488.11 1958.73 1496.8C1938.94 1502 1912.68 1503.05 1885.24 1503.73C1881.41 1503.83 1877.86 1505.41 1875.24 1508.19C1872.63 1510.96 1871.27 1514.58 1871.41 1518.38L1873.19 1568.45C1873.46 1576.07 1870.58 1583.59 1865.28 1589.08C1859.98 1594.58 1852.57 1597.72 1844.94 1597.72ZM1791.57 1567.72H1843.14L1841.42 1519.45C1841 1507.58 1845.25 1496.28 1853.39 1487.63C1861.54 1478.97 1872.59 1474.03 1884.49 1473.74C1909.06 1473.13 1934.45 1472.16 1951.09 1467.78C1968.68 1463.15 1968.68 1457.28 1968.68 1454.12C1968.68 1439.78 1958.67 1425.8 1940.5 1414.76C1919.03 1401.72 1888.64 1394.53 1854.93 1394.53C1819.93 1394.53 1784.19 1402.15 1756.88 1415.43C1732.96 1427.06 1718.68 1441.52 1718.68 1454.12C1718.68 1462.58 1718.68 1471.32 1768.25 1473.43C1783.17 1474.06 1796.66 1482.06 1804.35 1494.82C1812 1507.52 1812.77 1523.1 1806.4 1536.5L1791.57 1567.72Z" fill="#6B184E"/>
<path d="M1420.11 1121.41L1421.89 1171.48C1422.16 1178.98 1416.15 1185.21 1408.64 1185.21H1352.51C1342.77 1185.21 1336.35 1175.06 1340.54 1166.26L1356.56 1132.55C1365.55 1113.63 1352.24 1091.79 1331.32 1090.9C1291.25 1089.2 1267.39 1083.81 1267.39 1056.61C1267.39 1016.91 1341.34 982.021 1418.64 982.021C1495.94 982.021 1547.39 1016.91 1547.39 1056.61C1547.39 1086.94 1503.6 1089.85 1448.57 1091.22C1432.32 1091.63 1419.53 1105.18 1420.11 1121.41Z" fill="#EAD0A8"/>
<g opacity="0.55">
<path d="M1547.38 1056.62C1547.38 1072.12 1535.93 1080.47 1517.38 1085.07C1519.58 1081.47 1520.73 1077.27 1520.73 1072.37C1520.73 1032.67 1469.28 997.771 1391.98 997.771C1354.83 997.771 1318.48 1005.82 1290.73 1018.62C1318.63 997.071 1367.88 982.021 1418.63 982.021C1495.93 982.021 1547.38 1016.92 1547.38 1056.62Z" fill="#FEFEFD"/>
</g>
<g opacity="0.3">
<path d="M1421.88 1171.47C1422.18 1178.97 1416.13 1185.22 1408.63 1185.22H1352.53C1342.78 1185.22 1336.33 1175.07 1340.53 1166.27L1356.58 1132.57C1365.53 1113.62 1352.23 1091.82 1331.33 1090.92C1291.23 1089.22 1267.38 1083.82 1267.38 1056.62C1267.38 1033.32 1292.83 1011.72 1329.48 997.771C1313.38 1009.52 1303.63 1023.27 1303.63 1037.67C1303.63 1064.87 1327.48 1070.27 1367.58 1071.97C1388.48 1072.82 1401.78 1094.67 1392.83 1113.62L1376.78 1147.32C1372.58 1156.12 1379.03 1166.27 1388.78 1166.27H1421.68L1421.88 1171.47Z" fill="#6B184E"/>
</g>
<path d="M1408.64 1200.22H1352.51C1342.76 1200.22 1333.83 1195.3 1328.62 1187.06C1323.41 1178.82 1322.8 1168.64 1326.99 1159.84L1343.01 1126.13C1345.08 1121.78 1344.84 1116.93 1342.36 1112.81C1339.84 1108.63 1335.58 1106.12 1330.68 1105.91C1311.85 1105.11 1292.46 1103.48 1278.15 1097.01C1261.3 1089.39 1252.39 1075.43 1252.39 1056.63C1252.39 1031.55 1271.95 1008.22 1307.47 990.961C1338.74 975.761 1379.26 967.041 1418.64 967.041C1457.77 967.041 1493.69 975.771 1519.79 991.631C1547.26 1008.32 1562.39 1031.4 1562.39 1056.63C1562.39 1071.3 1555.46 1090.61 1522.43 1099.3C1502.64 1104.5 1476.38 1105.55 1448.94 1106.23C1445.11 1106.33 1441.56 1107.91 1438.94 1110.7C1436.33 1113.47 1434.97 1117.09 1435.11 1120.89L1436.89 1170.96C1437.16 1178.58 1434.28 1186.1 1428.98 1191.59C1423.68 1197.07 1416.27 1200.22 1408.64 1200.22ZM1355.26 1170.22H1406.83L1405.11 1121.95C1404.69 1110.08 1408.94 1098.78 1417.08 1090.13C1425.23 1081.47 1436.28 1076.53 1448.18 1076.24C1472.75 1075.63 1498.14 1074.66 1514.78 1070.28C1532.37 1065.65 1532.37 1059.78 1532.37 1056.62C1532.37 1042.28 1522.36 1028.3 1504.19 1017.26C1482.72 1004.22 1452.33 997.031 1418.62 997.031C1383.62 997.031 1347.88 1004.65 1320.57 1017.93C1296.65 1029.56 1282.37 1044.02 1282.37 1056.62C1282.37 1065.08 1282.37 1073.82 1331.94 1075.93C1346.86 1076.56 1360.35 1084.56 1368.04 1097.32C1375.69 1110.02 1376.46 1125.6 1370.09 1139L1355.26 1170.22Z" fill="#6B184E"/>
<path d="M447.803 1642.69L427.933 1688.69C424.953 1695.58 416.853 1698.63 410.073 1695.41L359.363 1671.34C350.563 1667.16 349.123 1655.24 356.673 1649.09L385.603 1625.51C401.833 1612.28 399.183 1586.84 380.663 1577.06C345.193 1558.34 325.953 1543.24 337.613 1518.66C354.643 1482.8 436.403 1482.99 506.233 1516.15C576.063 1549.3 607.583 1602.88 590.553 1638.75C577.543 1666.15 536.733 1650 486.443 1627.64C471.613 1621.03 454.233 1627.78 447.803 1642.69Z" fill="#EAD0A8"/>
<g opacity="0.55">
<path d="M590.564 1638.74C583.914 1652.74 569.994 1655.37 551.264 1651.57C554.794 1649.26 557.634 1645.96 559.734 1641.53C576.764 1605.67 545.254 1552.07 475.414 1518.92C441.854 1502.99 405.564 1494.67 375.004 1494.33C409.454 1486.83 460.394 1494.35 506.244 1516.12C576.074 1549.28 607.584 1602.88 590.564 1638.74Z" fill="#FEFEFD"/>
</g>
<g opacity="0.3">
<path d="M427.934 1688.67C424.984 1695.57 416.844 1698.63 410.064 1695.41L359.384 1671.35C350.574 1667.17 349.104 1655.23 356.674 1649.08L385.624 1625.52C401.834 1612.24 399.174 1586.84 380.674 1577.07C345.174 1558.34 325.944 1543.23 337.614 1518.66C347.604 1497.61 379.864 1489.01 418.954 1492.13C399.374 1495.84 384.664 1504.08 378.494 1517.09C366.824 1541.66 386.054 1556.77 421.554 1575.5C440.074 1585.23 442.714 1610.67 426.504 1623.95L397.554 1647.51C389.984 1653.66 391.464 1665.59 400.264 1669.78L429.984 1683.89L427.934 1688.67Z" fill="#6B184E"/>
</g>
<path d="M415.773 1711.68C411.603 1711.68 407.443 1710.77 403.643 1708.96L352.933 1684.89C344.123 1680.71 338.173 1672.43 337.003 1662.75C335.833 1653.07 339.643 1643.62 347.203 1637.46L376.133 1613.88C379.863 1610.84 381.733 1606.35 381.253 1601.57C380.773 1596.71 378.003 1592.61 373.663 1590.32C357.003 1581.53 340.183 1571.73 330.023 1559.75C318.063 1545.64 316.003 1529.21 324.063 1512.22C334.823 1489.56 362.493 1476.88 401.983 1476.52C436.783 1476.2 477.093 1485.7 512.673 1502.59C548.023 1519.37 576.733 1542.67 593.503 1568.18C611.163 1595.04 614.933 1622.38 604.113 1645.17C597.823 1658.42 583.273 1672.9 549.713 1666.58C529.603 1662.8 505.433 1652.48 480.353 1641.33C476.853 1639.77 472.963 1639.68 469.403 1641.07C465.863 1642.45 463.073 1645.14 461.573 1648.63L441.703 1694.63C438.683 1701.63 432.853 1707.19 425.713 1709.87C422.523 1711.08 419.143 1711.68 415.773 1711.68ZM368.293 1658.97L414.883 1681.09L434.033 1636.75C438.743 1625.85 447.433 1617.46 458.493 1613.14C469.573 1608.81 481.663 1609.09 492.543 1613.93C515.003 1623.91 538.343 1633.93 555.263 1637.11C573.143 1640.47 575.663 1635.17 577.013 1632.32C583.163 1619.36 580.123 1602.44 568.443 1584.68C554.643 1563.69 530.273 1544.17 499.813 1529.71C468.203 1514.7 432.653 1506.25 402.273 1506.54C375.683 1506.79 356.583 1513.73 351.173 1525.11C347.543 1532.75 343.793 1540.65 387.673 1563.81C400.873 1570.78 409.643 1583.79 411.113 1598.62C412.583 1613.37 406.593 1627.78 395.093 1637.15L368.293 1658.97Z" fill="#6B184E"/>
<g opacity="0.3">
<path d="M1656.34 1224.7C1671.9 1224.7 1684.51 1217.77 1684.51 1209.21C1684.51 1200.66 1671.9 1193.72 1656.34 1193.72C1640.78 1193.72 1628.17 1200.66 1628.17 1209.21C1628.17 1217.77 1640.78 1224.7 1656.34 1224.7Z" fill="#6B184E"/>
</g>
<g opacity="0.3">
<path d="M369.44 292.83C384.997 292.83 397.61 285.894 397.61 277.34C397.61 268.785 384.997 261.85 369.44 261.85C353.882 261.85 341.27 268.785 341.27 277.34C341.27 285.894 353.882 292.83 369.44 292.83Z" fill="#6B184E"/>
</g>
<g opacity="0.3">
<path d="M1213.79 1572.33C1229.35 1572.33 1241.96 1565.39 1241.96 1556.84C1241.96 1548.28 1229.35 1541.35 1213.79 1541.35C1198.23 1541.35 1185.62 1548.28 1185.62 1556.84C1185.62 1565.39 1198.23 1572.33 1213.79 1572.33Z" fill="#6B184E"/>
</g>
<g opacity="0.3">
<path d="M1624.11 1003.51C1639.67 1003.51 1652.28 996.576 1652.28 988.021C1652.28 979.466 1639.67 972.531 1624.11 972.531C1608.55 972.531 1595.94 979.466 1595.94 988.021C1595.94 996.576 1608.55 1003.51 1624.11 1003.51Z" fill="#6B184E"/>
</g>
<g opacity="0.3">
<path d="M962.19 1912.37C977.747 1912.37 990.359 1905.44 990.359 1896.88C990.359 1888.33 977.747 1881.39 962.19 1881.39C946.632 1881.39 934.02 1888.33 934.02 1896.88C934.02 1905.44 946.632 1912.37 962.19 1912.37Z" fill="#6B184E"/>
</g>
<g opacity="0.3">
<path d="M770.42 1587.83C785.978 1587.83 798.59 1580.89 798.59 1572.34C798.59 1563.78 785.978 1556.85 770.42 1556.85C754.862 1556.85 742.25 1563.78 742.25 1572.34C742.25 1580.89 754.862 1587.83 770.42 1587.83Z" fill="#6B184E"/>
</g>
<g opacity="0.3">
<path d="M1739.41 1292.51C1748.22 1292.51 1755.36 1288.58 1755.36 1283.74C1755.36 1278.9 1748.22 1274.97 1739.41 1274.97C1730.6 1274.97 1723.46 1278.9 1723.46 1283.74C1723.46 1288.58 1730.6 1292.51 1739.41 1292.51Z" fill="#6B184E"/>
</g>
<g opacity="0.3">
<path d="M1149.34 1497.77C1158.15 1497.77 1165.29 1493.84 1165.29 1489C1165.29 1484.16 1158.15 1480.23 1149.34 1480.23C1140.53 1480.23 1133.39 1484.16 1133.39 1489C1133.39 1493.84 1140.53 1497.77 1149.34 1497.77Z" fill="#6B184E"/>
</g>
<g opacity="0.3">
<path d="M1843.68 1313.49C1852.49 1313.49 1859.63 1309.56 1859.63 1304.72C1859.63 1299.88 1852.49 1295.95 1843.68 1295.95C1834.87 1295.95 1827.73 1299.88 1827.73 1304.72C1827.73 1309.56 1834.87 1313.49 1843.68 1313.49Z" fill="#6B184E"/>
</g>
<g opacity="0.3">
<path d="M2240.09 1170.54C2248.9 1170.54 2256.04 1166.61 2256.04 1161.77C2256.04 1156.93 2248.9 1153 2240.09 1153C2231.28 1153 2224.14 1156.93 2224.14 1161.77C2224.14 1166.61 2231.28 1170.54 2240.09 1170.54Z" fill="#6B184E"/>
</g>
<g opacity="0.3">
<path d="M1512.6 1266.58C1521.41 1266.58 1528.55 1262.65 1528.55 1257.81C1528.55 1252.97 1521.41 1249.04 1512.6 1249.04C1503.79 1249.04 1496.65 1252.97 1496.65 1257.81C1496.65 1262.65 1503.79 1266.58 1512.6 1266.58Z" fill="#6B184E"/>
</g>
<g opacity="0.3">
<path d="M1645.52 1537.46C1654.33 1537.46 1661.47 1533.53 1661.47 1528.69C1661.47 1523.85 1654.33 1519.92 1645.52 1519.92C1636.71 1519.92 1629.57 1523.85 1629.57 1528.69C1629.57 1533.53 1636.71 1537.46 1645.52 1537.46Z" fill="#6B184E"/>
</g>
<g opacity="0.3">
<path d="M934.02 1682.38C942.829 1682.38 949.97 1678.45 949.97 1673.61C949.97 1668.77 942.829 1664.84 934.02 1664.84C925.211 1664.84 918.07 1668.77 918.07 1673.61C918.07 1678.45 925.211 1682.38 934.02 1682.38Z" fill="#6B184E"/>
</g>
<g opacity="0.3">
<path d="M353.489 1821.72C362.298 1821.72 369.439 1817.79 369.439 1812.95C369.439 1808.11 362.298 1804.18 353.489 1804.18C344.68 1804.18 337.539 1808.11 337.539 1812.95C337.539 1817.79 344.68 1821.72 353.489 1821.72Z" fill="#6B184E"/>
</g>
<g opacity="0.3">
<path d="M1714.78 1161.77C1714.78 1165.14 1709.81 1167.87 1703.68 1167.87C1697.55 1167.87 1692.58 1165.14 1692.58 1161.77C1692.58 1158.4 1697.55 1155.67 1703.68 1155.67C1709.81 1155.67 1714.78 1158.4 1714.78 1161.77Z" fill="#6B184E"/>
</g>
<g opacity="0.3">
<path d="M1235.99 1143.62C1235.99 1146.99 1231.02 1149.72 1224.89 1149.72C1218.76 1149.72 1213.79 1146.99 1213.79 1143.62C1213.79 1140.25 1218.76 1137.52 1224.89 1137.52C1231.02 1137.51 1235.99 1140.25 1235.99 1143.62Z" fill="#6B184E"/>
</g>
<g opacity="0.3">
<path d="M463.602 308.37C463.602 311.74 458.632 314.47 452.502 314.47C446.372 314.47 441.402 311.74 441.402 308.37C441.402 305 446.372 302.27 452.502 302.27C458.632 302.27 463.602 305 463.602 308.37Z" fill="#6B184E"/>
</g>
<g opacity="0.3">
<path d="M1289.57 1455.2C1289.57 1458.57 1284.6 1461.3 1278.47 1461.3C1272.34 1461.3 1267.37 1458.57 1267.37 1455.2C1267.37 1451.83 1272.34 1449.1 1278.47 1449.1C1284.6 1449.09 1289.57 1451.82 1289.57 1455.2Z" fill="#6B184E"/>
</g>
<g opacity="0.3">
<path d="M1714.78 1611.48C1714.78 1614.85 1709.81 1617.58 1703.68 1617.58C1697.55 1617.58 1692.58 1614.85 1692.58 1611.48C1692.58 1608.11 1697.55 1605.38 1703.68 1605.38C1709.81 1605.38 1714.78 1608.1 1714.78 1611.48Z" fill="#6B184E"/>
</g>
<g opacity="0.3">
<path d="M1075.61 1896.88C1075.61 1900.25 1070.64 1902.98 1064.51 1902.98C1058.38 1902.98 1053.41 1900.25 1053.41 1896.88C1053.41 1893.51 1058.38 1890.78 1064.51 1890.78C1070.64 1890.78 1075.61 1893.51 1075.61 1896.88Z" fill="#6B184E"/>
</g>
<g opacity="0.3">
<path d="M866.013 1543.57C866.013 1546.94 861.042 1549.67 854.912 1549.67C848.782 1549.67 843.812 1546.94 843.812 1543.57C843.812 1540.2 848.782 1537.47 854.912 1537.47C861.042 1537.46 866.013 1540.2 866.013 1543.57Z" fill="#6B184E"/>
</g>
<g opacity="0.3">
<path d="M1264.15 1289.84C1264.15 1293.21 1259.18 1295.94 1253.05 1295.94C1246.92 1295.94 1241.95 1293.21 1241.95 1289.84C1241.95 1286.47 1246.92 1283.74 1253.05 1283.74C1259.18 1283.74 1264.15 1286.47 1264.15 1289.84Z" fill="#6B184E"/>
</g>
<g opacity="0.3">
<path d="M913.231 688.201C919.781 688.201 925.091 673.52 925.091 655.411C925.091 637.302 919.781 622.621 913.231 622.621C906.681 622.621 901.371 637.302 901.371 655.411C901.371 673.52 906.681 688.201 913.231 688.201Z" fill="#6B184E"/>
</g>
<g opacity="0.3">
<path d="M466.641 655.41C473.191 655.41 478.501 640.729 478.501 622.62C478.501 604.511 473.191 589.83 466.641 589.83C460.091 589.83 454.781 604.511 454.781 622.62C454.781 640.729 460.091 655.41 466.641 655.41Z" fill="#6B184E"/>
</g>
<g opacity="0.3">
<path d="M810.45 703.451C817 703.451 822.31 695.057 822.31 684.701C822.31 674.346 817 665.951 810.45 665.951C803.9 665.951 798.59 674.346 798.59 684.701C798.59 695.057 803.9 703.451 810.45 703.451Z" fill="#6B184E"/>
</g>
<g opacity="0.3">
<path d="M633.551 1498.98C640.101 1498.98 645.411 1490.59 645.411 1480.23C645.411 1469.88 640.101 1461.48 633.551 1461.48C627.001 1461.48 621.691 1469.88 621.691 1480.23C621.691 1490.59 627.001 1498.98 633.551 1498.98Z" fill="#6B184E"/>
</g>
<g opacity="0.3">
<path d="M410.751 591.371C417.301 591.371 422.611 582.976 422.611 572.621C422.611 562.266 417.301 553.871 410.751 553.871C404.201 553.871 398.891 562.266 398.891 572.621C398.891 582.976 404.201 591.371 410.751 591.371Z" fill="#6B184E"/>
</g>
</g>
<defs>
<clipPath id="clip0_716_80">
<rect width="2609.6" height="2215.57" fill="white"/>
</clipPath>
</defs>
</svg>
