<svg width="344" height="344" viewBox="0 0 344 344" fill="none" xmlns="http://www.w3.org/2000/svg">
<mask id="mask0_904_80" style="mask-type:alpha" maskUnits="userSpaceOnUse" x="0" y="0" width="344" height="344">
<g clip-path="url(#clip0_904_80)">
<path d="M210.743 270.803C214.488 279.141 210.781 289.038 202.064 291.788C176.92 299.72 149.948 300.528 124.191 293.95C93.0657 286 65.5543 267.734 46.1488 242.132C26.7433 216.531 16.59 185.107 17.3467 152.992C18.1033 120.876 29.7252 89.9649 50.3149 65.3059C70.9045 40.647 99.2457 23.6964 130.711 17.2217C162.177 10.747 194.908 15.1306 223.561 29.6569C252.214 44.1832 275.096 67.994 288.471 97.2019C299.539 121.371 303.556 148.055 300.238 174.211C299.088 183.279 290.011 188.692 281.138 186.495V186.495C272.265 184.298 266.988 175.314 267.817 166.211C269.53 147.388 266.323 128.341 258.375 110.984C248.117 88.5834 230.568 70.322 208.593 59.1812C186.618 48.0404 161.515 44.6785 137.383 49.6442C113.251 54.6099 91.5148 67.6099 75.7238 86.5218C59.9328 105.434 51.0196 129.14 50.4392 153.771C49.8589 178.402 57.6458 202.502 72.5287 222.137C87.4115 241.771 108.511 255.781 132.382 261.877C150.879 266.601 170.193 266.358 188.408 261.314C197.217 258.875 206.998 262.464 210.743 270.803V270.803Z" fill="black"/>
<path d="M193.5 150L179 116L166 150L132 164L166 178.5L179 212.5L193.5 178.5L227.5 164L193.5 150Z" fill="black"/>
<path d="M131.351 115.788L122.545 95L114.649 115.788L94 124.347L114.649 133.212L122.545 154L131.351 133.212L152 124.347L131.351 115.788Z" fill="black"/>
<path d="M128.471 193.741L122.702 180L117.529 193.741L104 199.399L117.529 205.259L122.702 219L128.471 205.259L142 199.399L128.471 193.741Z" fill="black"/>
<line x1="246.925" y1="242.723" x2="308.469" y2="304.267" stroke="black" stroke-width="36" stroke-linecap="round"/>
<path d="M276.185 208.477C274.184 209.657 271.603 208.89 270.57 206.809L254.467 174.351C252.914 171.221 255.839 167.744 259.189 168.739L306.502 182.79C309.852 183.785 310.405 188.295 307.395 190.07L276.185 208.477Z" fill="black"/>
</g>
</mask>
<g mask="url(#mask0_904_80)">
<circle cx="171.5" cy="171.5" r="221.5" fill="url(#paint0_radial_904_80)"/>
<circle cx="171.5" cy="171.5" r="221.5" fill="url(#paint1_radial_904_80)"/>
</g>
<defs>
<radialGradient id="paint0_radial_904_80" cx="0" cy="0" r="1" gradientUnits="userSpaceOnUse" gradientTransform="translate(324.335 452.805) rotate(-115.776) scale(604.112 898.548)">
<stop offset="0.24392" stop-color="#FF1B90"/>
<stop offset="0.436673" stop-color="#F80261"/>
<stop offset="0.688476" stop-color="#ED00C0"/>
<stop offset="0.776787" stop-color="#C500E9"/>
<stop offset="0.893155" stop-color="#7017FF"/>
</radialGradient>
<radialGradient id="paint1_radial_904_80" cx="0" cy="0" r="1" gradientUnits="userSpaceOnUse" gradientTransform="translate(110.588 377.716) rotate(-57.4396) scale(261.756 272.264)">
<stop stop-color="#FFD600"/>
<stop offset="0.484375" stop-color="#FF6930"/>
<stop offset="0.734375" stop-color="#FE3B36"/>
<stop offset="1" stop-color="#FE3B36" stop-opacity="0"/>
</radialGradient>
<clipPath id="clip0_904_80">
<rect width="344" height="344" fill="white"/>
</clipPath>
</defs>
</svg>
