<svg width="344" height="344" viewBox="0 0 344 344" fill="none" xmlns="http://www.w3.org/2000/svg">
<mask id="mask0_902_125" style="mask-type:alpha" maskUnits="userSpaceOnUse" x="0" y="0" width="344" height="344">
<g clip-path="url(#clip0_902_125)">
<path d="M218.092 267.21C222.372 275.287 219.319 285.404 210.799 288.716C184.663 298.877 155.972 301.117 128.365 294.949C95.3473 287.571 66.0478 268.65 45.7402 241.591C25.4327 214.532 15.451 181.113 17.5919 147.349C19.7329 113.585 33.8558 81.6944 57.4185 57.4173C80.9812 33.1402 112.436 18.0714 146.121 14.9233C179.806 11.7752 213.508 20.7545 241.161 40.2451C268.814 59.7356 288.602 88.4571 296.962 121.239C303.953 148.651 302.57 177.395 293.194 203.823C290.137 212.438 280.116 215.792 271.915 211.755V211.755C263.714 207.718 260.473 197.816 263.222 189.099C269.291 169.853 269.927 149.184 264.887 129.419C258.475 104.277 243.299 82.2497 222.091 67.3017C200.883 52.3536 175.035 45.467 149.201 47.8814C123.367 50.2958 99.243 61.8527 81.1719 80.4717C63.1007 99.0907 52.2693 123.549 50.6273 149.444C48.9854 175.338 56.6407 200.969 72.2153 221.721C87.79 242.474 110.261 256.985 135.583 262.643C155.489 267.091 176.13 265.839 195.186 259.197C203.818 256.189 213.812 259.133 218.092 267.21V267.21Z" fill="black"/>
<path d="M193.5 150L179 116L166 150L132 164L166 178.5L179 212.5L193.5 178.5L227.5 164L193.5 150Z" fill="black"/>
<path d="M131.351 115.788L122.545 95L114.649 115.788L94 124.347L114.649 133.212L122.545 154L131.351 133.212L152 124.347L131.351 115.788Z" fill="black"/>
<path d="M128.471 193.741L122.702 180L117.529 193.741L104 199.399L117.529 205.259L122.702 219L128.471 205.259L142 199.399L128.471 193.741Z" fill="black"/>
<line x1="246.925" y1="242.723" x2="308.469" y2="304.267" stroke="black" stroke-width="36" stroke-linecap="round"/>
<path d="M272.743 221.648C270.691 222.737 268.146 221.855 267.208 219.73L252.578 186.582C251.167 183.385 254.245 180.043 257.547 181.187L304.181 197.348C307.483 198.492 307.833 203.023 304.747 204.661L272.743 221.648Z" fill="black"/>
</g>
</mask>
<g mask="url(#mask0_902_125)">
<circle cx="171.5" cy="171.5" r="221.5" fill="url(#paint0_radial_902_125)"/>
<circle cx="171.5" cy="171.5" r="221.5" fill="url(#paint1_radial_902_125)"/>
</g>
<defs>
<radialGradient id="paint0_radial_902_125" cx="0" cy="0" r="1" gradientUnits="userSpaceOnUse" gradientTransform="translate(324.335 452.805) rotate(-115.776) scale(604.112 898.548)">
<stop offset="0.24392" stop-color="#FF1B90"/>
<stop offset="0.436673" stop-color="#F80261"/>
<stop offset="0.688476" stop-color="#ED00C0"/>
<stop offset="0.776787" stop-color="#C500E9"/>
<stop offset="0.893155" stop-color="#7017FF"/>
</radialGradient>
<radialGradient id="paint1_radial_902_125" cx="0" cy="0" r="1" gradientUnits="userSpaceOnUse" gradientTransform="translate(110.588 377.716) rotate(-57.4396) scale(261.756 272.264)">
<stop stop-color="#FFD600"/>
<stop offset="0.484375" stop-color="#FF6930"/>
<stop offset="0.734375" stop-color="#FE3B36"/>
<stop offset="1" stop-color="#FE3B36" stop-opacity="0"/>
</radialGradient>
<clipPath id="clip0_902_125">
<rect width="344" height="344" fill="white"/>
</clipPath>
</defs>
</svg>
