<?xml version="1.0" ?><!DOCTYPE svg  PUBLIC '-//W3C//DTD SVG 1.1//EN'  'http://www.w3.org/Graphics/SVG/1.1/DTD/svg11.dtd'><svg height="100%" style="fill-rule:evenodd;clip-rule:evenodd;stroke-linejoin:round;stroke-miterlimit:1.41421;" version="1.1" viewBox="0 0 49 49" width="100%" xml:space="preserve" xmlns="http://www.w3.org/2000/svg" xmlns:serif="http://www.serif.com/" xmlns:xlink="http://www.w3.org/1999/xlink"><path d="M8.468,20.637c0,-0.53 0.211,-1.039 0.586,-1.414c0.375,-0.375 0.884,-0.586 1.414,-0.586c5.745,0 22.254,0 28,0c0.53,0 1.039,0.211 1.414,0.586c0.375,0.375 0.586,0.884 0.586,1.414c0,0.531 -0.211,1.04 -0.586,1.415c-0.375,0.375 -0.884,0.585 -1.414,0.585c-5.746,0 -22.255,0 -28,0c-0.53,0 -1.039,-0.21 -1.414,-0.585c-0.375,-0.375 -0.586,-0.884 -0.586,-1.415c0,0 0,0 0,0Zm0,8c0,-0.53 0.211,-1.039 0.586,-1.414c0.375,-0.375 0.884,-0.586 1.414,-0.586c3.832,0 12.168,0 16,0c0.53,0 1.039,0.211 1.414,0.586c0.375,0.375 0.586,0.884 0.586,1.414c0,0.531 -0.211,1.04 -0.586,1.415c-0.375,0.375 -0.884,0.585 -1.414,0.585c-3.832,0 -12.168,0 -16,0c-0.53,0 -1.039,-0.21 -1.414,-0.585c-0.375,-0.375 -0.586,-0.884 -0.586,-1.415c0,0 0,0 0,0Z" style="fill:#f60056;fill-rule:nonzero;"/></svg>